<svg width="150" height="40" viewBox="0 0 150 40" fill="none" xmlns="http://www.w3.org/2000/svg">
  <path d="M46.5 30L54 10H59L66.5 30H61.5L60 25.5H53L51.5 30H46.5ZM54.5 21.5H58.5L56.5 15L54.5 21.5Z" fill="#4285F4"/>
  <path d="M68 30V10H73V14.5C73.8333 13.1667 74.8333 12.1667 76 11.5C77.1667 10.8333 78.5 10.5 80 10.5C82.1667 10.5 83.9167 11.25 85.25 12.75C86.5833 14.25 87.25 16.3333 87.25 19V30H82.25V20C82.25 18.3333 81.9167 17.0833 81.25 16.25C80.5833 15.4167 79.6667 15 78.5 15C77.1667 15 76.0833 15.5 75.25 16.5C74.4167 17.5 74 18.8333 74 20.5V30H68Z" fill="#4285F4"/>
  <path d="M90 20C90 17.6667 90.5 15.5833 91.5 13.75C92.5 11.9167 93.9167 10.5 95.75 9.5C97.5833 8.5 99.6667 8 102 8C105.333 8 108.083 9 110.25 11C112.417 13 113.667 15.6667 114 19H108.5C108.333 17.1667 107.75 15.75 106.75 14.75C105.75 13.75 104.333 13.25 102.5 13.25C100.5 13.25 98.9167 13.9167 97.75 15.25C96.5833 16.5833 96 18.5 96 21C96 23.5 96.5833 25.4167 97.75 26.75C98.9167 28.0833 100.5 28.75 102.5 28.75C104.333 28.75 105.75 28.25 106.75 27.25C107.75 26.25 108.333 24.8333 108.5 23H114C113.667 26.3333 112.417 29 110.25 31C108.083 33 105.333 34 102 34C99.6667 34 97.5833 33.5 95.75 32.5C93.9167 31.5 92.5 30.0833 91.5 28.25C90.5 26.4167 90 23.3333 90 20Z" fill="#4285F4"/>
  <path d="M116 30V10H121V14C121.667 12.6667 122.583 11.6667 123.75 11C124.917 10.3333 126.25 10 127.75 10C129.25 10 130.583 10.3333 131.75 11C132.917 11.6667 133.833 12.6667 134.5 14C135.167 12.6667 136.083 11.6667 137.25 11C138.417 10.3333 139.75 10 141.25 10C143.417 10 145.167 10.75 146.5 12.25C147.833 13.75 148.5 15.8333 148.5 18.5V30H143.5V19.5C143.5 17.8333 143.167 16.5833 142.5 15.75C141.833 14.9167 140.917 14.5 139.75 14.5C138.417 14.5 137.333 15 136.5 16C135.667 17 135.25 18.3333 135.25 20V30H130.25V19.5C130.25 17.8333 129.917 16.5833 129.25 15.75C128.583 14.9167 127.667 14.5 126.5 14.5C125.167 14.5 124.083 15 123.25 16C122.417 17 122 18.3333 122 20V30H116Z" fill="#4285F4"/>
  <path d="M25 5L35 20L25 35L15 20L25 5Z" fill="#4285F4"/>
  <path d="M10 10L20 25L10 40L0 25L10 10Z" fill="#4285F4" fill-opacity="0.8"/>
  <path d="M40 10L30 25L40 40L50 25L40 10Z" fill="#4285F4" fill-opacity="0.6"/>
</svg> 